<?xml version="1.0" encoding="UTF-8"?>
<svg width="80px" height="80px" viewBox="0 0 80 80" version="1.1" xmlns="http://www.w3.org/2000/svg" xmlns:xlink="http://www.w3.org/1999/xlink">
    <!-- Generator: Sketch 53.2 (72643) - https://sketchapp.com -->
    <title>Group 7</title>
    <desc>Created with Sketch.</desc>
    <g id="Page-1" stroke="none" stroke-width="1" fill="none" fill-rule="evenodd">
        <g id="755843" transform="translate(-138.000000, -12.000000)">
            <g id="Group-7" transform="translate(138.000000, 12.000000)">
                <circle id="Oval" fill-opacity="0.1" fill="#8097B1" cx="40" cy="40" r="40"></circle>
                <g id="Group-6" transform="translate(20.000000, 18.000000)" fill="#2E384D">
                    <path d="M17.68412,14.8450909 C17.68412,15.3433636 17.27986,15.7475455 16.77966,15.7475455 C16.28028,15.7475455 15.8752,15.3433636 15.8752,14.8450909 C15.8752,14.346 16.28028,13.9426364 16.77966,13.9426364 C17.27986,13.9426364 17.68412,14.346 17.68412,14.8450909" id="Fill-47"></path>
                    <path d="M24.52128,14.8450909 C24.52128,15.3433636 24.1162,15.7475455 23.61682,15.7475455 C23.11662,15.7475455 22.71236,15.3433636 22.71236,14.8450909 C22.71236,14.346 23.11662,13.9426364 23.61682,13.9426364 C24.1162,13.9426364 24.52128,14.346 24.52128,14.8450909" id="Fill-48"></path>
                    <path d="M37.4002,42.6460909 L24.58278,42.6460909 L23.61108,38.3318182 L24.97638,39.2260909 C25.11988,39.3201818 25.28552,39.3684545 25.4528,39.3684545 C25.52906,39.3684545 25.6045,39.3586364 25.6783,39.339 C25.91774,39.2751818 26.11864,39.1123636 26.22934,38.8914545 L29.89392,31.6292727 C31.34696,31.8820909 32.64338,32.1848182 34.08576,32.5521818 C37.02628,33.3 39.08038,35.9296364 39.08038,38.9479091 L39.08038,40.9696364 C39.08038,41.8941818 38.32598,42.6460909 37.4002,42.6460909 Z M18.3803,42.6460909 L19.33068,36.9106364 L20.4016,36.2307273 L21.52172,36.9638182 L22.80092,42.6460909 L18.3803,42.6460909 Z M16.61812,42.6460909 L3.41776,42.6460909 C2.49116,42.6460909 1.73758,41.8941818 1.73758,40.9696364 L1.73758,38.9470909 C1.73758,35.9320909 3.77446,33.3057273 6.68956,32.562 C8.23854,32.1676364 9.6227,31.8452727 11.2135,31.5793636 L14.40904,38.8497273 C14.51072,39.0812727 14.70916,39.2571818 14.95188,39.3308182 C15.1946,39.4044545 15.457,39.3684545 15.67184,39.2334545 L17.36186,38.16 L16.61812,42.6460909 Z M13.78666,29.4054545 L19.05844,35.028 L15.59394,37.2272727 L12.75264,30.7611818 L13.78666,29.4054545 Z M27.00014,29.0618182 L28.2736,30.9837273 L25.11496,37.2428182 L21.72426,35.0230909 L27.00014,29.0618182 Z M34.51544,30.8716364 C32.83608,30.4445455 31.34532,30.1009091 29.58478,29.8186364 L27.82424,27.162 C27.675,26.937 27.42982,26.7938182 27.16004,26.775 C26.89026,26.7553636 26.62704,26.8641818 26.44828,27.0662727 L20.39012,33.9103636 L14.35328,27.4712727 C14.1778,27.2855455 13.93098,27.1865455 13.67432,27.198 C13.41848,27.2110909 13.18232,27.3354545 13.02734,27.5391818 L11.29468,29.8088182 C9.48658,30.096 7.96876,30.4461818 6.25906,30.8822727 C2.57398,31.8223636 1.42108547e-14,35.1384545 1.42108547e-14,38.9470909 L1.42108547e-14,40.9696364 C1.42108547e-14,42.8506364 1.5334,44.3798182 3.41776,44.3798182 L17.35366,44.3798182 C17.35448,44.3798182 17.35612,44.3806364 17.35694,44.3806364 C17.35776,44.3806364 17.35858,44.3798182 17.3594,44.3798182 L23.88168,44.3798182 C23.88332,44.3798182 23.88496,44.3806364 23.8866,44.3806364 C23.88742,44.3806364 23.88824,44.3798182 23.88906,44.3798182 L37.4002,44.3798182 C39.28456,44.3798182 40.81796,42.8506364 40.81796,40.9696364 L40.81796,38.9479091 C40.81796,35.136 38.22594,31.815 34.51544,30.8716364 L34.51544,30.8716364 Z" id="Fill-49"></path>
                    <path d="M28.40726,17.9713636 C28.40726,22.4738182 24.73612,26.1368182 20.22284,26.1368182 C15.71038,26.1368182 12.03924,22.4738182 12.03924,17.9713636 L12.03924,13.4206364 C12.03924,11.6509091 13.48162,10.2117273 15.2561,10.2117273 C15.28316,10.2117273 15.31022,10.2092727 15.33646,10.2068182 C15.36352,10.2092727 15.39058,10.2117273 15.41764,10.2117273 L28.40726,10.2117273 L28.40726,17.9713636 Z M33.11734,3.24245455 C32.63682,3.24245455 32.24814,3.63027273 32.24814,4.10972727 L32.24814,5.27481818 C32.24814,7.04045455 30.80822,8.47718182 29.03866,8.47718182 L15.41764,8.47718182 C15.39058,8.47718182 15.36352,8.47881818 15.33646,8.48127273 C15.31022,8.47881818 15.28316,8.47718182 15.2561,8.47718182 C12.52386,8.47718182 10.30084,10.6952727 10.30084,13.4214545 L10.30084,17.9713636 C10.30084,18.3804545 10.32626,18.7838182 10.37464,19.1806364 C8.60918,18.4238182 8.45092,16.1288182 8.45092,15.3433636 L8.45092,7.20245455 C8.45092,5.62827273 9.73422,4.34781818 11.31108,4.34781818 L12.3738,4.34781818 C12.8535,4.34781818 13.243,3.96 13.243,3.48054545 C13.243,2.51836364 14.02774,1.73454545 14.99288,1.73454545 L29.31008,1.73454545 C29.7906,1.73454545 30.17928,1.34590909 30.17928,0.867272727 C30.17928,0.388636364 29.78978,0 29.31008,0 L14.99288,0 C13.36928,0 12.00152,1.11272727 11.61366,2.61409091 L11.31108,2.61409091 C8.77564,2.61409091 6.71252,4.67263636 6.71252,7.20327273 L6.71252,15.3433636 C6.71252,18.5015455 8.2984,20.6885455 10.80596,21.0919091 C12.1196,25.0265455 15.84404,27.8713636 20.22284,27.8713636 C25.69388,27.8713636 30.14566,23.4302727 30.14566,17.9713636 L30.14566,10.0849091 C32.34162,9.58254545 33.98654,7.61727273 33.98654,5.27481818 L33.98654,4.10972727 C33.98654,3.63027273 33.59704,3.24245455 33.11734,3.24245455 L33.11734,3.24245455 Z" id="Fill-50"></path>
                    <path d="M23.57418,20.3972727 C23.2347,20.0585455 22.68448,20.0585455 22.345,20.3972727 C21.82512,20.9151818 21.13468,21.2015455 20.39996,21.2015455 C19.62834,21.2015455 18.88706,20.8742727 18.36718,20.3056364 C18.04328,19.9513636 17.49388,19.926 17.13964,20.2483636 C16.78458,20.5715455 16.75916,21.1197273 17.08224,21.474 C17.93176,22.4026364 19.14044,22.9352727 20.39996,22.9352727 C21.5988,22.9352727 22.7263,22.4689091 23.57418,21.6237273 C23.91366,21.285 23.91366,20.736 23.57418,20.3972727" id="Fill-51"></path>
                    <path d="M33.98654,0.867272727 C33.98654,1.34590909 33.59704,1.73454545 33.11734,1.73454545 C32.63682,1.73454545 32.24814,1.34590909 32.24814,0.867272727 C32.24814,0.388636364 32.63682,0 33.11734,0 C33.59704,0 33.98654,0.388636364 33.98654,0.867272727" id="Fill-52"></path>
                </g>
            </g>
        </g>
    </g>
</svg>