<?xml version="1.0" encoding="UTF-8"?>
<svg width="55px" height="42px" viewBox="0 0 55 42" version="1.1" xmlns="http://www.w3.org/2000/svg" xmlns:xlink="http://www.w3.org/1999/xlink">
    <!-- Generator: Sketch 53.2 (72643) - https://sketchapp.com -->
    <title>Group 5</title>
    <desc>Created with Sketch.</desc>
    <g id="Page-1" stroke="none" stroke-width="1" fill="none" fill-rule="evenodd">
        <g id="755843" transform="translate(-222.000000, -383.000000)" fill="#2E384D">
            <g id="Group-5" transform="translate(222.673000, 383.952000)">
                <path d="M16.47,18.795 C16.47,19.38 15.996,19.854 15.411,19.854 C14.825,19.854 14.351,19.38 14.351,18.795 C14.351,18.21 14.825,17.736 15.411,17.736 C15.996,17.736 16.47,18.21 16.47,18.795" id="Fill-88"></path>
                <path d="M22.52,22.326 C22.52,22.911 22.046,23.386 21.461,23.386 C20.876,23.386 20.401,22.911 20.401,22.326 C20.401,21.741 20.876,21.267 21.461,21.267 C22.046,21.267 22.52,21.741 22.52,22.326" id="Fill-89"></path>
                <path d="M28.547,15.759 C28.547,16.344 28.073,16.818 27.488,16.818 C26.903,16.818 26.428,16.344 26.428,15.759 C26.428,15.174 26.903,14.7 27.488,14.7 C28.073,14.7 28.547,15.174 28.547,15.759" id="Fill-90"></path>
                <path d="M34.455,18.372 C34.455,18.958 33.98,19.432 33.395,19.432 C32.81,19.432 32.336,18.958 32.336,18.372 C32.336,17.787 32.81,17.313 33.395,17.313 C33.98,17.313 34.455,17.787 34.455,18.372" id="Fill-91"></path>
                <path d="M40.294,10.891 C40.294,11.476 39.82,11.95 39.235,11.95 C38.65,11.95 38.176,11.476 38.176,10.891 C38.176,10.306 38.65,9.831 39.235,9.831 C39.82,9.831 40.294,10.306 40.294,10.891" id="Fill-92"></path>
                <path d="M52.124,34.52 C52.124,36.68 50.366,38.438 48.206,38.438 L6.037,38.438 C3.876,38.438 2.119,36.68 2.119,34.52 L2.119,33.915 L21.573,33.915 C22.036,35.556 23.547,36.762 25.333,36.762 L28.881,36.762 C30.669,36.762 32.179,35.556 32.642,33.915 L52.124,33.915 L52.124,34.52 Z M53.184,31.796 L31.729,31.796 C31.144,31.796 30.669,32.271 30.669,32.856 C30.669,33.841 29.867,34.643 28.881,34.643 L25.333,34.643 C24.348,34.643 23.546,33.841 23.546,32.856 C23.546,32.271 23.072,31.796 22.487,31.796 L5.81,31.796 L5.81,4.352 C5.81,3.121 6.812,2.119 8.043,2.119 L46.2,2.119 C47.432,2.119 48.433,3.121 48.433,4.352 L48.433,24.748 C48.433,25.334 48.907,25.808 49.493,25.808 C50.078,25.808 50.552,25.334 50.552,24.748 L50.552,4.352 C50.552,1.952 48.6,7.10542736e-15 46.2,7.10542736e-15 L8.043,7.10542736e-15 C5.643,7.10542736e-15 3.691,1.952 3.691,4.352 L3.691,31.796 L1.06,31.796 C0.475,31.796 0,32.271 0,32.856 L0,34.52 C0,37.849 2.708,40.557 6.037,40.557 L48.207,40.557 C51.535,40.557 54.243,37.849 54.243,34.52 L54.243,32.856 C54.243,32.271 53.769,31.796 53.184,31.796 L53.184,31.796 Z" id="Fill-93"></path>
                <path d="M44.091,27.34 L40.294,27.34 L40.294,14.644 C40.294,14.059 39.82,13.584 39.235,13.584 C38.65,13.584 38.176,14.059 38.176,14.644 L38.176,27.34 L34.338,27.34 L34.338,22.626 C34.338,22.041 33.864,21.567 33.279,21.567 C32.694,21.567 32.22,22.041 32.22,22.626 L32.22,27.34 L28.382,27.34 L28.382,20.179 C28.382,19.594 27.908,19.119 27.323,19.119 C26.738,19.119 26.263,19.594 26.263,20.179 L26.263,27.34 L22.427,27.34 L22.427,26.318 C22.427,25.733 21.952,25.258 21.367,25.258 C20.782,25.258 20.308,25.733 20.308,26.318 L20.308,27.34 L16.47,27.34 L16.47,23.139 C16.47,22.554 15.996,22.08 15.411,22.08 C14.826,22.08 14.352,22.554 14.352,23.139 L14.352,27.34 L10.511,27.34 L10.511,6.638 L44.091,6.638 L44.091,27.34 Z M45.15,4.519 L9.452,4.519 C8.867,4.519 8.392,4.993 8.392,5.579 L8.392,28.4 C8.392,28.985 8.867,29.459 9.452,29.459 L45.15,29.459 C45.735,29.459 46.209,28.985 46.209,28.4 L46.209,5.579 C46.209,4.993 45.735,4.519 45.15,4.519 L45.15,4.519 Z" id="Fill-94"></path>
                <path d="M50.428,28.888 C50.428,29.474 49.954,29.947 49.368,29.947 C48.783,29.947 48.309,29.474 48.309,28.888 C48.309,28.303 48.783,27.829 49.368,27.829 C49.954,27.829 50.428,28.303 50.428,28.888" id="Fill-95"></path>
            </g>
        </g>
    </g>
</svg>