<?xml version="1.0" encoding="UTF-8"?>
<svg width="55px" height="40px" viewBox="0 0 55 40" version="1.1" xmlns="http://www.w3.org/2000/svg" xmlns:xlink="http://www.w3.org/1999/xlink">
    <!-- Generator: Sketch 53.2 (72643) - https://sketchapp.com -->
    <title>Group 2</title>
    <desc>Created with Sketch.</desc>
    <g id="Page-1" stroke="none" stroke-width="1" fill="none" fill-rule="evenodd">
        <g id="755843" transform="translate(-222.000000, -305.000000)">
            <g id="Group-2" transform="translate(222.652500, 305.272000)">
                <path d="M39.6405,22.531 L33.1845,16.161 L33.1745,16.151 C32.9365,15.915 32.6145,15.817 32.3055,15.853 L27.6935,15.803 C27.4075,15.801 27.1335,15.912 26.9325,16.113 L23.0685,19.977 C22.8295,20.216 22.5105,20.348 22.1735,20.348 C21.8345,20.348 21.5165,20.216 21.2775,19.977 C21.0375,19.738 20.9065,19.42 20.9065,19.081 C20.9065,18.742 21.0375,18.424 21.2775,18.185 L26.9595,12.503 L32.0885,12.503 C32.3695,12.503 32.6395,12.392 32.8375,12.193 L34.2495,10.781 L42.9625,19.493 L39.6405,22.531 Z M38.8745,26.652 C38.6205,26.906 38.2835,27.046 37.9245,27.046 C37.5655,27.046 37.2285,26.906 36.9755,26.652 L34.7735,24.451 C34.3595,24.037 33.6885,24.037 33.2745,24.451 C32.8605,24.865 32.8605,25.536 33.2745,25.949 L35.4755,28.151 L35.4765,28.151 L35.4835,28.158 C36.0295,28.704 36.0485,29.578 35.5255,30.147 C35.2625,30.433 34.9045,30.598 34.5165,30.611 C34.1295,30.626 33.7595,30.486 33.4785,30.219 L31.3575,28.212 C30.9325,27.809 30.2625,27.828 29.8595,28.253 C29.4575,28.678 29.4755,29.349 29.9005,29.752 L32.2085,31.937 C32.4375,32.153 32.5655,32.445 32.5695,32.76 C32.5745,33.075 32.4535,33.37 32.2315,33.592 C31.7815,34.043 31.0475,34.043 30.5975,33.592 L29.5275,32.523 C29.1135,32.109 28.4425,32.109 28.0285,32.523 C27.8215,32.73 27.7185,33.001 27.7185,33.272 C27.7185,33.543 27.8215,33.814 28.0285,34.021 L29.1415,35.133 C29.3485,35.34 29.4615,35.616 29.4615,35.908 C29.4615,36.201 29.3485,36.476 29.1415,36.683 C28.9335,36.89 28.6585,37.004 28.3665,37.004 C28.0735,37.004 27.7985,36.89 27.5915,36.683 L26.2945,35.387 C26.5655,34.88 26.7185,34.303 26.7185,33.69 C26.7185,31.697 25.1015,30.075 23.1095,30.068 C23.1095,30.066 23.1095,30.064 23.1095,30.063 C23.1095,28.066 21.4855,26.441 19.4875,26.441 C19.4835,26.441 19.4785,26.441 19.4745,26.441 L19.4745,26.44 C19.4745,24.443 17.8495,22.818 15.8525,22.818 C15.2375,22.818 14.6585,22.972 14.1515,23.243 L10.8395,19.931 L20.2085,10.561 L21.8405,12.193 C22.0395,12.392 22.3085,12.503 22.5895,12.503 L23.9615,12.503 L19.7785,16.687 C19.1385,17.326 18.7865,18.177 18.7865,19.081 C18.7865,19.986 19.1385,20.836 19.7785,21.476 C20.4175,22.116 21.2685,22.467 22.1735,22.467 C23.0775,22.467 23.9275,22.115 24.5675,21.476 L28.1155,17.928 L32.0005,17.97 L38.8675,24.747 C39.1245,25 39.2665,25.338 39.2675,25.698 C39.2685,26.059 39.1295,26.397 38.8745,26.652 Z M24.1735,34.736 C24.1685,34.74 24.1635,34.744 24.1585,34.749 C24.1535,34.754 24.1495,34.76 24.1435,34.765 C23.8725,35.029 23.5035,35.192 23.0975,35.192 C22.2675,35.192 21.5935,34.518 21.5935,33.69 C21.5935,33.306 21.7395,32.956 21.9775,32.69 C22.0205,32.649 22.0625,32.607 22.1035,32.565 C22.3685,32.33 22.7155,32.187 23.0965,32.187 C23.9255,32.187 24.5995,32.861 24.5995,33.69 C24.5995,34.096 24.4365,34.465 24.1735,34.736 Z M20.6075,31.062 C20.5635,31.103 20.5215,31.145 20.4815,31.187 C20.2155,31.422 19.8685,31.566 19.4875,31.566 C18.6595,31.566 17.9855,30.892 17.9855,30.063 C17.9855,29.234 18.6595,28.56 19.4875,28.56 C20.3165,28.56 20.9905,29.234 20.9905,30.063 C20.9905,30.447 20.8445,30.796 20.6075,31.062 Z M15.8525,27.943 C15.0235,27.943 14.3495,27.269 14.3495,26.44 C14.3495,25.612 15.0235,24.938 15.8525,24.938 C16.6815,24.938 17.3555,25.612 17.3555,26.44 C17.3555,27.269 16.6815,27.943 15.8525,27.943 Z M53.9315,13 L43.8915,2.96 C43.4775,2.546 42.8065,2.546 42.3925,2.96 C41.9785,3.374 41.9785,4.044 42.3925,4.459 L51.6835,13.749 L46.2515,19.181 C46.0855,19.348 45.8145,19.348 45.6485,19.181 L34.9215,8.455 C34.7545,8.288 34.7545,8.018 34.9215,7.851 L38.5665,4.205 C38.9805,3.791 38.9805,3.121 38.5665,2.707 C38.1525,2.293 37.4825,2.293 37.0685,2.707 L33.4225,6.352 C32.6675,7.107 32.4885,8.223 32.8825,9.151 L31.6495,10.383 L23.0285,10.383 L21.4735,8.828 C21.5335,8.61 21.5645,8.383 21.5645,8.151 C21.5645,7.471 21.2995,6.831 20.8185,6.351 L17.2715,2.803 C16.8575,2.39 16.1865,2.39 15.7735,2.803 C15.3595,3.217 15.3595,3.888 15.7735,4.302 L19.3205,7.849 C19.4285,7.958 19.4455,8.085 19.4455,8.151 C19.4455,8.216 19.4285,8.344 19.3205,8.452 L8.5895,19.18 C8.5865,19.183 8.5835,19.187 8.5805,19.19 C8.4745,19.288 8.3555,19.304 8.2915,19.304 C8.2255,19.304 8.0985,19.288 7.9895,19.179 L2.5585,13.747 L11.9745,4.331 C12.3875,3.918 12.3875,3.247 11.9745,2.833 C11.5605,2.419 10.8895,2.419 10.4755,2.833 L0.3105,12.998 C-0.1035,13.412 -0.1035,14.083 0.3105,14.496 L6.4915,20.678 C6.9875,21.175 7.6395,21.422 8.2915,21.422 C8.5915,21.422 8.8905,21.368 9.1745,21.263 L12.6535,24.742 C12.3835,25.249 12.2305,25.827 12.2305,26.44 C12.2305,28.438 13.8555,30.062 15.8525,30.062 C15.8565,30.062 15.8615,30.062 15.8655,30.062 L15.8655,30.063 C15.8655,32.056 17.4835,33.677 19.4745,33.685 C19.4745,33.686 19.4745,33.688 19.4745,33.689 C19.4745,35.686 21.0995,37.312 23.0965,37.312 C23.7115,37.312 24.2895,37.158 24.7975,36.886 L26.0925,38.182 C26.6995,38.789 27.5075,39.123 28.3665,39.123 C29.2255,39.123 30.0325,38.789 30.6395,38.182 C31.2145,37.607 31.5455,36.852 31.5785,36.044 C32.3615,36.006 33.1335,35.688 33.7305,35.091 C34.3615,34.46 34.7015,33.622 34.6895,32.731 C34.6895,32.729 34.6895,32.726 34.6895,32.725 C35.6115,32.667 36.4595,32.263 37.0865,31.58 C37.7175,30.893 38.0295,30.027 38.0265,29.163 C38.9135,29.138 39.7435,28.781 40.3725,28.151 C41.0295,27.494 41.3905,26.62 41.3875,25.691 C41.3855,25.144 41.2565,24.618 41.0175,24.143 L44.4925,20.965 C44.9285,21.27 45.4395,21.425 45.9495,21.425 C46.6015,21.425 47.2535,21.176 47.7505,20.68 L53.9315,14.499 C54.3455,14.085 54.3455,13.414 53.9315,13 L53.9315,13 Z" id="Fill-39" fill="#2E384D"></path>
                <path d="M47.4955,14.237 C47.4955,14.821 47.0215,15.295 46.4375,15.295 C45.8535,15.295 45.3805,14.821 45.3805,14.237 C45.3805,13.653 45.8535,13.18 46.4375,13.18 C47.0215,13.18 47.4955,13.653 47.4955,14.237" id="Fill-40" fill="#111229"></path>
                <path d="M8.7535,14.343 C8.7535,14.927 8.2805,15.401 7.6955,15.401 C7.1115,15.401 6.6385,14.927 6.6385,14.343 C6.6385,13.759 7.1115,13.285 7.6955,13.285 C8.2805,13.285 8.7535,13.759 8.7535,14.343" id="Fill-41" fill="#111229"></path>
                <path d="M14.9425,1.143 C14.9425,1.727 14.4695,2.2 13.8855,2.2 C13.3005,2.2 12.8275,1.727 12.8275,1.143 C12.8275,0.558 13.3005,0.085 13.8855,0.085 C14.4695,0.085 14.9425,0.558 14.9425,1.143" id="Fill-42" fill="#111229"></path>
                <path d="M41.3955,1.058 C41.3955,1.642 40.9225,2.115 40.3375,2.115 C39.7535,2.115 39.2805,1.642 39.2805,1.058 C39.2805,0.474 39.7535,0 40.3375,0 C40.9225,0 41.3955,0.474 41.3955,1.058" id="Fill-43" fill="#111229"></path>
            </g>
        </g>
    </g>
</svg>