<?xml version="1.0" encoding="UTF-8"?>
<svg width="31px" height="55px" viewBox="0 0 31 55" version="1.1" xmlns="http://www.w3.org/2000/svg" xmlns:xlink="http://www.w3.org/1999/xlink">
    <!-- Generator: Sketch 53.2 (72643) - https://sketchapp.com -->
    <title>Group</title>
    <desc>Created with Sketch.</desc>
    <g id="Page-1" stroke="none" stroke-width="1" fill="none" fill-rule="evenodd">
        <g id="755843" transform="translate(-315.000000, -297.000000)" fill="#2E5BFF">
            <g id="Group" transform="translate(315.930000, 297.743000)">
                <path d="M27.365,34.977 C27.365,35.454 26.978,35.841 26.501,35.841 L12.891,35.841 C12.306,35.841 11.831,36.316 11.831,36.901 C11.831,37.486 12.306,37.96 12.891,37.96 L24.926,37.96 L24.926,43.502 C24.926,46.09 22.82,48.196 20.231,48.196 L9.254,48.196 C6.665,48.196 4.559,46.09 4.559,43.502 L4.559,36.901 C4.559,36.316 4.085,35.841 3.5,35.841 L2.983,35.841 C2.507,35.841 2.119,35.454 2.119,34.977 L2.119,34.871 C2.119,34.395 2.507,34.007 2.983,34.007 L26.501,34.007 C26.978,34.007 27.365,34.395 27.365,34.871 L27.365,34.977 Z M9.816,52.124 C9.984,51.156 10.787,50.403 11.78,50.315 L17.705,50.315 C18.697,50.403 19.501,51.156 19.668,52.124 L9.816,52.124 Z M11.094,28.291 C9.05,28.291 7.387,26.628 7.387,24.584 L7.387,24.577 L9.976,24.577 C12.02,24.577 13.683,26.24 13.683,28.284 L13.683,28.291 L11.094,28.291 Z M6.198,10.663 C6.198,5.952 10.031,2.119 14.742,2.119 C19.454,2.119 23.286,5.952 23.286,10.663 C23.286,15.374 19.454,19.207 14.742,19.207 C10.031,19.207 6.198,15.375 6.198,10.663 Z M19.509,26.471 L24.555,26.471 L24.555,28.181 C24.555,30.225 22.892,31.888 20.848,31.888 L15.801,31.888 L15.801,30.178 C15.801,28.134 17.465,26.471 19.509,26.471 Z M26.501,31.888 L25.338,31.888 C26.172,30.88 26.674,29.588 26.674,28.181 L26.674,25.412 C26.674,24.827 26.199,24.352 25.614,24.352 L19.509,24.352 C18.102,24.352 16.81,24.854 15.802,25.687 L15.802,21.273 C21.186,20.74 25.405,16.185 25.405,10.664 C25.405,4.784 20.622,-2.84217094e-14 14.742,-2.84217094e-14 C8.863,-2.84217094e-14 4.08,4.784 4.08,10.663 C4.08,16.185 8.299,20.74 13.683,21.273 L13.683,23.793 C12.675,22.959 11.383,22.457 9.976,22.457 L6.327,22.457 C5.742,22.457 5.268,22.932 5.268,23.517 L5.268,24.584 C5.268,27.796 7.881,30.41 11.094,30.41 L13.683,30.41 L13.683,31.888 L2.983,31.888 C1.338,31.888 -2.84217094e-14,33.226 -2.84217094e-14,34.871 L-2.84217094e-14,34.977 C-2.84217094e-14,36.437 1.054,37.654 2.44,37.91 L2.44,43.501 C2.44,46.935 4.994,49.783 8.301,50.247 C7.898,50.902 7.665,51.673 7.665,52.498 L7.665,53.184 C7.665,53.769 8.139,54.243 8.724,54.243 L20.76,54.243 C21.345,54.243 21.819,53.769 21.819,53.184 L21.819,52.498 C21.819,51.674 21.586,50.902 21.183,50.247 C24.491,49.783 27.044,46.935 27.044,43.502 L27.044,37.91 C28.43,37.654 29.484,36.437 29.484,34.977 L29.484,34.871 C29.484,33.226 28.146,31.888 26.501,31.888 L26.501,31.888 Z" id="Fill-141"></path>
                <path d="M15.442,9.581 L14.042,9.581 C13.681,9.581 13.387,9.288 13.387,8.926 L13.387,8.113 C13.387,7.752 13.681,7.458 14.042,7.458 L15.593,7.458 C15.871,7.458 16.097,7.684 16.097,7.961 C16.097,8.546 16.571,9.021 17.156,9.021 C17.741,9.021 18.216,8.546 18.216,7.961 C18.216,6.586 17.151,5.455 15.801,5.348 L15.801,4.705 C15.801,4.12 15.327,3.646 14.742,3.646 C14.157,3.646 13.683,4.12 13.683,4.705 L13.683,5.363 C12.323,5.54 11.268,6.705 11.268,8.113 L11.268,8.927 C11.268,10.456 12.513,11.7 14.042,11.7 L15.442,11.7 C15.803,11.7 16.097,11.994 16.097,12.355 L16.097,13.169 C16.097,13.53 15.803,13.824 15.442,13.824 L13.891,13.824 C13.613,13.824 13.387,13.598 13.387,13.321 C13.387,12.736 12.913,12.261 12.328,12.261 C11.743,12.261 11.268,12.736 11.268,13.321 C11.268,14.696 12.334,15.828 13.683,15.934 L13.683,16.577 C13.683,17.162 14.157,17.636 14.742,17.636 C15.327,17.636 15.801,17.161 15.801,16.576 L15.801,15.919 C17.162,15.742 18.216,14.577 18.216,13.169 L18.216,12.355 C18.216,10.825 16.972,9.581 15.442,9.581" id="Fill-142"></path>
                <path d="M9.463,36.901 C9.463,37.486 8.989,37.961 8.404,37.961 C7.819,37.961 7.344,37.486 7.344,36.901 C7.344,36.316 7.819,35.842 8.404,35.842 C8.989,35.842 9.463,36.316 9.463,36.901" id="Fill-143"></path>
            </g>
        </g>
    </g>
</svg>