<?xml version="1.0" encoding="UTF-8"?>
<svg width="55px" height="52px" viewBox="0 0 55 52" version="1.1" xmlns="http://www.w3.org/2000/svg" xmlns:xlink="http://www.w3.org/1999/xlink">
    <!-- Generator: Sketch 53.2 (72643) - https://sketchapp.com -->
    <title>Group 3</title>
    <desc>Created with Sketch.</desc>
    <g id="Page-1" stroke="none" stroke-width="1" fill="none" fill-rule="evenodd">
        <g id="755843" transform="translate(-63.000000, -219.000000)" fill="#2E384D">
            <g id="Group-3" transform="translate(63.637000, 219.469000)">
                <path d="M33.313,46.36 C32.589,44.993 31.403,43.907 29.978,43.276 C30.462,42.638 30.75,41.843 30.75,40.982 C30.75,38.883 29.042,37.175 26.943,37.175 C24.844,37.175 23.136,38.883 23.136,40.982 C23.136,41.899 23.462,42.74 24.003,43.398 C22.696,44.042 21.609,45.078 20.929,46.36 C19.675,44.919 18.914,43.038 18.914,40.982 C18.914,36.457 22.596,32.775 27.121,32.775 C31.647,32.775 35.328,36.457 35.328,40.982 C35.328,43.038 34.567,44.918 33.313,46.36 Z M25.255,40.982 C25.255,40.051 26.012,39.294 26.943,39.294 C27.873,39.294 28.631,40.051 28.631,40.982 C28.631,41.913 27.873,42.67 26.943,42.67 C26.012,42.67 25.255,41.913 25.255,40.982 Z M27.121,49.19 C25.446,49.19 23.888,48.684 22.588,47.819 C23.285,46.03 25.092,44.789 27.121,44.789 C29.151,44.789 30.958,46.03 31.654,47.819 C30.355,48.684 28.796,49.19 27.121,49.19 Z M27.121,30.656 C21.428,30.656 16.795,35.288 16.795,40.982 C16.795,44.217 18.291,47.108 20.626,49.003 C20.67,49.045 20.718,49.084 20.77,49.118 C22.523,50.49 24.728,51.308 27.121,51.308 C29.514,51.308 31.72,50.49 33.473,49.118 C33.524,49.084 33.572,49.045 33.617,49.003 C35.952,47.108 37.447,44.217 37.447,40.982 C37.447,35.288 32.815,30.656 27.121,30.656 L27.121,30.656 Z" id="Fill-59"></path>
                <path d="M16.518,15.704 C15.794,14.337 14.608,13.25 13.184,12.62 C13.667,11.982 13.954,11.186 13.954,10.326 C13.954,8.227 12.247,6.519 10.147,6.519 C8.048,6.519 6.341,8.227 6.341,10.326 C6.341,11.242 6.667,12.084 7.208,12.742 C5.9,13.386 4.814,14.422 4.134,15.704 C2.88,14.262 2.119,12.382 2.119,10.326 C2.119,5.8 5.801,2.119 10.326,2.119 C14.852,2.119 18.533,5.8 18.533,10.326 C18.533,12.382 17.772,14.262 16.518,15.704 Z M8.459,10.326 C8.459,9.395 9.217,8.638 10.148,8.638 C11.078,8.638 11.836,9.395 11.836,10.326 C11.836,11.257 11.078,12.014 10.148,12.014 C9.217,12.014 8.459,11.257 8.459,10.326 Z M10.326,18.533 C8.651,18.533 7.093,18.028 5.793,17.163 C6.49,15.373 8.296,14.133 10.326,14.133 C12.356,14.133 14.163,15.373 14.859,17.163 C13.56,18.028 12.001,18.533 10.326,18.533 Z M10.326,0 C4.633,0 0,4.632 0,10.326 C0,13.561 1.496,16.452 3.831,18.347 C3.875,18.389 3.923,18.427 3.974,18.462 C5.727,19.834 7.933,20.652 10.326,20.652 C12.719,20.652 14.925,19.833 16.678,18.462 C16.73,18.427 16.777,18.389 16.821,18.347 C19.157,16.452 20.652,13.561 20.652,10.326 C20.652,4.632 16.02,0 10.326,0 L10.326,0 Z" id="Fill-60"></path>
                <path d="M50.109,15.704 C49.384,14.337 48.198,13.25 46.774,12.62 C47.258,11.982 47.545,11.186 47.545,10.326 C47.545,8.227 45.837,6.519 43.738,6.519 C41.639,6.519 39.931,8.227 39.931,10.326 C39.931,11.242 40.257,12.084 40.798,12.741 C39.491,13.385 38.404,14.422 37.724,15.704 C36.471,14.262 35.71,12.382 35.71,10.326 C35.71,5.8 39.391,2.119 43.917,2.119 C48.442,2.119 52.124,5.8 52.124,10.326 C52.124,12.382 51.362,14.262 50.109,15.704 Z M42.05,10.326 C42.05,9.395 42.807,8.638 43.738,8.638 C44.669,8.638 45.426,9.395 45.426,10.326 C45.426,11.257 44.669,12.014 43.738,12.014 C42.807,12.014 42.05,11.257 42.05,10.326 Z M43.917,18.533 C42.242,18.533 40.683,18.028 39.384,17.163 C40.08,15.373 41.887,14.133 43.917,14.133 C45.946,14.133 47.753,15.373 48.45,17.163 C47.15,18.028 45.591,18.533 43.917,18.533 Z M43.917,0 C38.223,0 33.591,4.632 33.591,10.326 C33.591,13.561 35.086,16.452 37.422,18.347 C37.466,18.389 37.513,18.427 37.565,18.462 C39.317,19.833 41.523,20.652 43.917,20.652 C46.31,20.652 48.515,19.834 50.268,18.462 C50.32,18.427 50.368,18.389 50.412,18.347 C52.747,16.452 54.243,13.561 54.243,10.326 C54.243,4.632 49.61,0 43.917,0 L43.917,0 Z" id="Fill-61"></path>
                <path d="M14.935,36.188 C14.931,36.185 14.927,36.181 14.923,36.177 C14.476,35.799 13.808,35.855 13.43,36.302 C13.054,36.746 13.107,37.408 13.545,37.787 C13.55,37.791 13.554,37.795 13.558,37.798 C13.757,37.967 14,38.049 14.242,38.049 C14.543,38.049 14.842,37.922 15.051,37.674 C15.426,37.23 15.374,36.568 14.935,36.188" id="Fill-62"></path>
                <path d="M12.868,34.064 C12.866,34.061 12.858,34.05 12.855,34.048 C12.479,33.601 11.815,33.545 11.367,33.921 C10.919,34.295 10.861,34.963 11.234,35.412 L11.236,35.414 C11.445,35.667 11.747,35.798 12.053,35.798 C12.291,35.798 12.529,35.719 12.727,35.555 C13.178,35.182 13.241,34.514 12.868,34.064" id="Fill-63"></path>
                <path d="M11.151,31.634 C11.149,31.631 11.141,31.618 11.138,31.614 C10.836,31.113 10.184,30.949 9.683,31.252 C9.182,31.554 9.02,32.203 9.322,32.704 L9.323,32.706 C9.52,33.042 9.874,33.229 10.238,33.229 C10.42,33.229 10.604,33.182 10.773,33.084 C11.278,32.788 11.447,32.139 11.151,31.634" id="Fill-64"></path>
                <path d="M8.953,26.11 C8.83,25.538 8.267,25.174 7.695,25.297 C7.123,25.421 6.759,25.984 6.882,26.556 C6.883,26.56 6.886,26.574 6.887,26.578 C6.999,27.069 7.436,27.404 7.92,27.404 C7.998,27.404 8.076,27.395 8.155,27.377 C8.726,27.247 9.083,26.681 8.953,26.11" id="Fill-65"></path>
                <path d="M9.832,28.958 C9.831,28.956 9.827,28.944 9.826,28.943 C9.607,28.4 8.991,28.138 8.448,28.357 C7.905,28.575 7.643,29.192 7.861,29.735 L7.862,29.739 C8.027,30.155 8.426,30.408 8.847,30.408 C8.978,30.408 9.11,30.384 9.238,30.333 C9.782,30.117 10.048,29.501 9.832,28.958" id="Fill-66"></path>
                <path d="M40.813,36.302 C40.435,35.855 39.767,35.799 39.32,36.177 C39.316,36.181 39.312,36.185 39.307,36.188 C38.869,36.568 38.816,37.23 39.191,37.674 C39.401,37.922 39.7,38.049 40.001,38.049 C40.243,38.049 40.486,37.967 40.685,37.798 C40.689,37.795 40.693,37.791 40.697,37.787 C41.136,37.408 41.189,36.746 40.813,36.302" id="Fill-67"></path>
                <path d="M45.795,28.356 C45.253,28.137 44.636,28.4 44.417,28.943 C44.416,28.944 44.412,28.956 44.41,28.958 C44.195,29.501 44.462,30.11 45.004,30.327 C45.132,30.379 45.264,30.402 45.394,30.402 C45.815,30.402 46.215,30.149 46.382,29.735 C46.601,29.192 46.338,28.575 45.795,28.356" id="Fill-68"></path>
                <path d="M42.88,33.921 C42.433,33.544 41.765,33.601 41.387,34.048 C41.385,34.05 41.376,34.061 41.374,34.064 C41.003,34.513 41.067,35.174 41.515,35.548 C41.712,35.712 41.952,35.793 42.191,35.793 C42.495,35.793 42.797,35.663 43.007,35.414 C43.384,34.967 43.327,34.298 42.88,33.921" id="Fill-69"></path>
                <path d="M46.552,25.301 C45.983,25.176 45.418,25.537 45.29,26.106 L45.289,26.108 C45.16,26.679 45.517,27.246 46.088,27.376 C46.167,27.394 46.245,27.403 46.324,27.403 C46.807,27.403 47.244,27.069 47.356,26.578 C47.357,26.574 47.36,26.56 47.36,26.556 C47.483,25.986 47.122,25.427 46.552,25.301" id="Fill-70"></path>
                <path d="M44.559,31.254 C44.058,30.952 43.406,31.113 43.104,31.614 C43.102,31.618 43.094,31.631 43.092,31.634 C42.796,32.139 42.965,32.789 43.469,33.085 C43.638,33.184 43.823,33.231 44.005,33.231 C44.368,33.231 44.721,33.044 44.918,32.708 C45.221,32.207 45.059,31.556 44.559,31.254" id="Fill-71"></path>
                <path d="M46.824,22.164 C46.239,22.131 45.74,22.58 45.707,23.164 L45.707,23.167 C45.674,23.752 46.122,24.249 46.706,24.281 C46.726,24.282 46.746,24.283 46.765,24.283 C47.323,24.283 47.791,23.844 47.823,23.28 C47.855,22.696 47.408,22.197 46.824,22.164" id="Fill-72"></path>
                <path d="M33.713,1.914 L33.703,1.911 C33.146,1.731 32.549,2.037 32.37,2.594 C32.189,3.15 32.495,3.748 33.052,3.928 L33.062,3.931 C33.17,3.965 33.28,3.983 33.388,3.983 C33.835,3.983 34.251,3.697 34.396,3.248 C34.576,2.692 34.27,2.094 33.713,1.914" id="Fill-73"></path>
                <path d="M30.457,1.15 L30.429,1.146 C29.85,1.06 29.309,1.46 29.224,2.039 C29.139,2.618 29.536,3.155 30.114,3.241 C30.172,3.25 30.23,3.255 30.287,3.255 C30.797,3.255 31.246,2.886 31.332,2.367 C31.426,1.79 31.035,1.244 30.457,1.15" id="Fill-74"></path>
                <path d="M27.108,0.91 L27.083,0.911 C26.498,0.919 26.027,1.401 26.036,1.986 C26.045,2.565 26.515,3.029 27.093,3.029 C27.098,3.029 27.103,3.029 27.108,3.029 C27.694,3.029 28.168,2.555 28.168,1.97 C28.168,1.385 27.694,0.91 27.108,0.91" id="Fill-75"></path>
                <path d="M21.834,2.626 C21.664,2.066 21.073,1.75 20.513,1.92 L20.498,1.924 C19.939,2.096 19.629,2.688 19.801,3.247 C19.94,3.702 20.361,3.994 20.815,3.994 C20.919,3.994 21.024,3.979 21.127,3.947 C21.688,3.778 22.004,3.186 21.834,2.626" id="Fill-76"></path>
                <path d="M24.981,2.079 C24.888,1.502 24.346,1.108 23.768,1.202 L23.923,2.25 L23.767,1.203 C23.188,1.289 22.789,1.828 22.875,2.407 C22.954,2.932 23.406,3.31 23.922,3.31 C23.974,3.31 24.026,3.306 24.079,3.298 C24.084,3.298 24.098,3.295 24.103,3.295 C24.68,3.201 25.075,2.657 24.981,2.079" id="Fill-77"></path>
                <path d="M8.513,22.934 C8.39,22.362 7.827,21.997 7.255,22.121 C6.683,22.244 6.319,22.808 6.442,23.38 C6.443,23.384 6.446,23.398 6.447,23.401 C6.559,23.893 6.995,24.227 7.48,24.227 C7.557,24.227 7.636,24.219 7.715,24.201 C8.285,24.071 8.643,23.504 8.513,22.934" id="Fill-78"></path>
            </g>
        </g>
    </g>
</svg>