<?xml version="1.0" encoding="iso-8859-1"?>
<!-- Generator: Adobe Illustrator 19.0.0, SVG Export Plug-In . SVG Version: 6.00 Build 0)  -->
<svg version="1.1" id="Layer_1" xmlns="http://www.w3.org/2000/svg" xmlns:xlink="http://www.w3.org/1999/xlink" x="0px" y="0px"
	 viewBox="0 0 512 512" style="enable-background:new 0 0 512 512;" xml:space="preserve">
<g>
	<g>
		<path d="M315.858,110.048c-5.633,0-10.199,4.566-10.199,10.199v49.67c0,5.633,4.566,10.199,10.199,10.199
			c5.633,0,10.199-4.566,10.199-10.199v-49.67C326.057,114.615,321.491,110.048,315.858,110.048z"/>
	</g>
</g>
<g>
	<g>
		<path d="M405.853,149.969c-3.983-3.983-10.441-3.983-14.424,0l-21.014,21.014c-3.983,3.983-3.983,10.441,0,14.425
			c1.992,1.992,4.602,2.987,7.212,2.987s5.221-0.995,7.212-2.987l21.014-21.014C409.836,160.411,409.836,153.953,405.853,149.969z"
			/>
	</g>
</g>
<g>
	<g>
		<path d="M265.122,170.984l-21.013-21.014c-3.983-3.983-10.441-3.983-14.425,0c-3.983,3.983-3.983,10.441,0,14.425l21.014,21.014
			c1.992,1.992,4.602,2.987,7.212,2.987s5.221-0.995,7.212-2.987C269.105,181.425,269.105,174.967,265.122,170.984z"/>
	</g>
</g>
<g>
	<g>
		<path d="M501.801,203.626h-37.148c5.175-11.009,7.866-23.05,7.866-35.532c0-46.004-37.426-83.431-83.43-83.431
			c-0.036,0-0.07,0-0.106,0c-14.565-26.501-42.548-43.272-73.125-43.272c-30.576,0-58.559,16.772-73.124,43.272
			c-0.036,0-0.071,0-0.106,0c-46.003,0-83.43,37.427-83.43,83.431c0,12.565,2.808,24.459,8.362,35.532h-28.081v-79.825
			c0-5.633-4.566-10.199-10.199-10.199c-41.79,0-75.788,33.998-75.788,75.789c0,4.762,0.456,9.548,1.336,14.235H10.199
			C4.566,203.626,0,208.192,0,213.825c0,141.59,114.841,256.783,256,256.783s256-115.193,256-256.783
			C512,208.192,507.434,203.626,501.801,203.626z M242.628,105.062c1.667,0,3.439,0.082,5.418,0.25
			c4.325,0.366,8.422-2.05,10.187-6.025c10.112-22.779,32.731-37.498,57.625-37.498c24.895,0,47.515,14.719,57.627,37.498
			c1.764,3.975,5.855,6.396,10.187,6.025c1.979-0.168,3.751-0.25,5.418-0.25c34.756,0,63.031,28.276,63.031,63.032
			c0,12.848-3.76,25.069-10.893,35.532H191.381c-7.925-10.882-11.785-22.532-11.785-35.532
			C179.596,133.338,207.872,105.062,242.628,105.062z M119.08,134.942v68.685H75.708c-1.197-4.611-1.818-9.436-1.818-14.235
			C73.889,162.333,93.394,139.743,119.08,134.942z M256,450.21c-126.502,0-230.038-100.56-235.385-226.186h470.771
			C486.038,349.65,382.502,450.21,256,450.21z"/>
	</g>
</g>
<g>
	<g>
		<path d="M426.913,322.256c-4.556-3.312-10.934-2.305-14.247,2.251c-36.36,50.003-94.927,79.856-156.666,79.856
			c-5.633,0-10.199,4.566-10.199,10.199c0,5.633,4.566,10.198,10.199,10.198c34.326,0,68.458-8.327,98.704-24.078
			c29.264-15.241,55.011-37.433,74.46-64.178C432.477,331.947,431.469,325.569,426.913,322.256z"/>
	</g>
</g>
<g>
	<g>
		<path d="M449.233,276.449c-5.235-2.079-11.164,0.481-13.243,5.717c-1.289,3.246-2.685,6.502-4.15,9.675
			c-2.361,5.115-0.13,11.175,4.984,13.536c1.385,0.64,2.837,0.941,4.269,0.941c3.854,0,7.544-2.197,9.266-5.927
			c1.621-3.51,3.165-7.11,4.59-10.7C457.028,284.457,454.468,278.528,449.233,276.449z"/>
	</g>
</g>
<g>
</g>
<g>
</g>
<g>
</g>
<g>
</g>
<g>
</g>
<g>
</g>
<g>
</g>
<g>
</g>
<g>
</g>
<g>
</g>
<g>
</g>
<g>
</g>
<g>
</g>
<g>
</g>
<g>
</g>
</svg>
